<?xml version="1.0" encoding="UTF-8" standalone="no"?><svg width="46" height="46" viewBox="0 0 46 46" fill="none" xmlns="http://www.w3.org/2000/svg">
<path d="M39.2918 10.5416H6.7085L23.0002 23.9583L39.2918 10.5416Z" fill="#ED9595"/>
<path fill-rule="evenodd" clip-rule="evenodd" d="M38.3336 15.2615L26.5616 24.5484C24.4732 26.1959 21.5273 26.1959 19.4389 24.5484L7.66691 15.2615V34.5H38.3336V15.2615ZM3.88801 10.8526C3.84507 11.0286 3.82769 11.2088 3.83519 11.3876C3.83412 11.4249 3.83358 11.4624 3.83358 11.5V34.5C3.83358 36.617 5.54982 38.3333 7.66691 38.3333H38.3336C40.4507 38.3333 42.1669 36.617 42.1669 34.5V11.5C42.1669 11.4624 42.1664 11.425 42.1653 11.3877C42.1728 11.2088 42.1554 11.0286 42.1125 10.8525C41.8048 9.04376 40.23 7.66663 38.3336 7.66663H7.66691C5.77045 7.66663 4.19565 9.04379 3.88801 10.8526ZM9.08799 11.5L21.8131 21.5388C22.5093 22.088 23.4912 22.088 24.1874 21.5388L36.9125 11.5H23.0002H9.08799Z" fill="#DC8787"/>
</svg>
