<?xml version="1.0" encoding="UTF-8" standalone="no"?><svg width="36" height="36" viewBox="0 0 36 36" fill="none" xmlns="http://www.w3.org/2000/svg">
<path d="M9.97189 30.2917L10.5136 30.6128C12.7898 31.9635 15.3994 32.6779 18.0604 32.6793H18.0663C26.2386 32.6793 32.8901 26.0294 32.8936 17.8563C32.8948 13.8954 31.3542 10.1711 28.5547 7.36945C25.7549 4.56791 22.0325 3.02409 18.0718 3.02246C9.89294 3.02246 3.24163 9.67146 3.23838 17.8443C3.23727 20.6449 4.02086 23.3725 5.50524 25.7327L5.85816 26.2933L4.35984 31.7631L9.97189 30.2917ZM0.0766602 36.0001L2.60756 26.7589C1.04654 24.0544 0.225235 20.9862 0.226432 17.8431C0.230367 8.01011 8.23279 0.0102539 18.0663 0.0102539C22.8382 0.0123068 27.3171 1.86962 30.6855 5.24031C34.0534 8.61125 35.9075 13.092 35.9058 17.8575C35.9016 27.69 27.8981 35.6913 18.0663 35.6913C18.0656 35.6913 18.0667 35.6913 18.0663 35.6913H18.0586C15.0731 35.6901 12.1394 34.9413 9.53378 33.5203L0.0766602 36.0001Z" fill="#FBF8CC"/>
<path d="M0.82995 17.8288C0.82995 20.8863 1.62906 23.8395 3.15779 26.4453L0.690974 35.3745L9.82862 32.9772C12.3302 34.3669 15.1792 35.0618 18.0629 35.0618C27.548 35.0618 35.2959 27.3487 35.2959 17.8636C35.2959 13.2426 33.4892 8.93441 30.258 5.66848C26.9921 2.4373 22.6839 0.630615 18.0629 0.630615C8.57784 0.630615 0.82995 8.34376 0.82995 17.8288Z" fill="url(#paint0_linear_111_213)"/>
<path d="M0.214128 17.8149C0.214128 20.982 1.04189 24.0411 2.62545 26.7404L0.070168 35.9897L9.53549 33.5064C12.1268 34.946 15.0779 35.6658 18.0651 35.6658C27.8903 35.6658 35.916 27.6761 35.916 17.8509C35.916 13.0642 34.0445 8.6015 30.6975 5.21846C27.3145 1.87141 22.8517 -6.10352e-05 18.0651 -6.10352e-05C8.23985 -6.10352e-05 0.214128 7.98968 0.214128 17.8149ZM5.86453 26.2725L5.50463 25.7327C4.02905 23.3573 3.23727 20.6221 3.23727 17.8509C3.23727 9.64521 9.89539 3.02308 18.0651 3.02308C22.024 3.02308 25.7669 4.57064 28.5381 7.34186C31.3453 10.1491 32.8929 13.892 32.8929 17.8509C32.8929 26.0206 26.2348 32.6787 18.0651 32.6787C15.4018 32.6787 12.7746 31.9589 10.5072 30.5913L9.96736 30.2674L4.35296 31.7429L5.86453 26.2725Z" fill="url(#paint1_linear_111_213)"/>
<path fill-rule="evenodd" clip-rule="evenodd" d="M13.6076 10.3942C13.2737 9.65197 12.9222 9.63709 12.6046 9.62409C12.3448 9.61297 12.0473 9.61366 11.7503 9.61366C11.4532 9.61366 10.9701 9.72528 10.5618 10.1713C10.1531 10.6174 9.00146 11.6957 9.00146 13.8887C9.00146 16.082 10.5989 18.2011 10.8216 18.4988C11.0445 18.796 13.9053 23.4403 18.436 25.227C22.2014 26.7118 22.9677 26.4165 23.7849 26.3422C24.6022 26.2679 26.4222 25.2641 26.7937 24.2232C27.1651 23.1825 27.1651 22.2905 27.0537 22.104C26.9422 21.9182 26.6451 21.8068 26.1993 21.5839C25.7535 21.361 23.562 20.2825 23.1534 20.1339C22.7448 19.9853 22.4475 19.911 22.1504 20.3572C21.8531 20.803 20.9994 21.8068 20.7393 22.104C20.4793 22.4019 20.2192 22.4391 19.7734 22.2162C19.3276 21.9926 17.892 21.5224 16.1889 20.0039C14.8638 18.8225 13.9692 17.3634 13.7091 16.9172C13.449 16.4714 13.6813 16.2299 13.9049 16.0077C14.105 15.8079 14.3507 15.4874 14.5736 15.2271C14.796 14.9668 14.8703 14.781 15.0189 14.4838C15.1674 14.1861 15.0932 13.9258 14.9817 13.7029C14.8703 13.48 14.004 11.2756 13.6076 10.3942Z" fill="#FBF8CC"/>
<defs>
<linearGradient id="paint0_linear_111_213" x1="17.9915" y1="35.3745" x2="17.9915" y2="0.630615" gradientUnits="userSpaceOnUse">
<stop stop-color="#DC8787"/>
<stop offset="1" stop-color="#DC8787"/>
</linearGradient>
<linearGradient id="paint1_linear_111_213" x1="17.9915" y1="35.9897" x2="17.9915" y2="-6.10352e-05" gradientUnits="userSpaceOnUse">
<stop stop-color="#DC8787"/>
<stop offset="1" stop-color="#DC8787"/>
</linearGradient>
</defs>
</svg>
